<?xml version="1.0" encoding="UTF-8" standalone="no"?>
<!-- Created with Inkscape (http://www.inkscape.org/) -->

<svg
   xmlns:dc="http://purl.org/dc/elements/1.1/"
   xmlns:cc="http://creativecommons.org/ns#"
   xmlns:rdf="http://www.w3.org/1999/02/22-rdf-syntax-ns#"
   xmlns:svg="http://www.w3.org/2000/svg"
   xmlns="http://www.w3.org/2000/svg"
   xmlns:sodipodi="http://sodipodi.sourceforge.net/DTD/sodipodi-0.dtd"
   xmlns:inkscape="http://www.inkscape.org/namespaces/inkscape"
   width="592.45447"
   height="335.8757"
   id="svg2"
   version="1.1"
   inkscape:version="0.48.4 r9939"
   sodipodi:docname="venn.svg"
   inkscape:export-filename="/home/sascha/Dokumente/Studium/SS13/cae/CAE-Pa/doku/rdf2yEd/venn.png"
   inkscape:export-xdpi="150"
   inkscape:export-ydpi="150">
  <defs
     id="defs4" />
  <sodipodi:namedview
     id="base"
     pagecolor="#ffffff"
     bordercolor="#666666"
     borderopacity="1.0"
     inkscape:pageopacity="0.0"
     inkscape:pageshadow="2"
     inkscape:zoom="1.4"
     inkscape:cx="398.50609"
     inkscape:cy="186.60825"
     inkscape:document-units="px"
     inkscape:current-layer="layer1"
     showgrid="false"
     fit-margin-top="0"
     fit-margin-left="0"
     fit-margin-right="0"
     fit-margin-bottom="0"
     inkscape:window-width="1920"
     inkscape:window-height="1025"
     inkscape:window-x="-2"
     inkscape:window-y="-3"
     inkscape:window-maximized="1" />
  <metadata
     id="metadata7">
    <rdf:RDF>
      <cc:Work
         rdf:about="">
        <dc:format>image/svg+xml</dc:format>
        <dc:type
           rdf:resource="http://purl.org/dc/dcmitype/StillImage" />
        <dc:title></dc:title>
      </cc:Work>
    </rdf:RDF>
  </metadata>
  <g
     inkscape:label="Layer 1"
     inkscape:groupmode="layer"
     id="layer1"
     transform="translate(-55.558397,-194.23757)">
    <path
       sodipodi:type="arc"
       style="fill:#02bddd;fill-opacity:1;stroke:none"
       id="path3753"
       sodipodi:cx="206.07112"
       sodipodi:cy="268.4838"
       sodipodi:rx="117.68277"
       sodipodi:ry="75.256363"
       d="m 323.75389,268.4838 c 0,41.56294 -52.68837,75.25636 -117.68277,75.25636 -64.9944,0 -117.682769,-33.69342 -117.682769,-75.25636 0,-41.56295 52.688369,-75.25637 117.682769,-75.25637 64.9944,0 117.68277,33.69342 117.68277,75.25637 z"
       transform="matrix(2.5171674,0,0,2.2315436,-166.92988,-236.95787)" />
    <path
       sodipodi:type="arc"
       style="fill:#d0dd02;fill-opacity:1;stroke:#000000;stroke-opacity:1"
       id="path3755"
       sodipodi:cx="252.2856"
       sodipodi:cy="340.96225"
       sodipodi:rx="87.630737"
       sodipodi:ry="53.790623"
       d="m 339.91634,340.96225 c 0,29.70774 -39.23362,53.79062 -87.63074,53.79062 -48.39712,0 -87.63074,-24.08288 -87.63074,-53.79062 0,-29.70774 39.23362,-53.79062 87.63074,-53.79062 48.39712,0 87.63074,24.08288 87.63074,53.79062 z"
       transform="matrix(1.4956772,0,0,1.5539906,-120.50654,-147.97871)" />
    <path
       sodipodi:type="arc"
       style="fill:#02dd15;fill-opacity:1;stroke:#000000;stroke-opacity:1"
       id="path3757"
       sodipodi:cx="460.12448"
       sodipodi:cy="375.30743"
       sodipodi:rx="124.75384"
       sodipodi:ry="80.559662"
       d="m 584.87832,375.30743 c 0,44.49188 -55.8542,80.55967 -124.75384,80.55967 -68.89964,0 -124.75384,-36.06779 -124.75384,-80.55967 0,-44.49187 55.8542,-80.55966 124.75384,-80.55966 68.89964,0 124.75384,36.06779 124.75384,80.55966 z"
       transform="translate(-33.335034,5.0507627)" />
    <path
       style="fill:#eeffaa;fill-opacity:1;stroke:none"
       d="m 341.78377,438.26143 c -7.46063,-4.60616 -12.21273,-8.27245 -18.21179,-14.05058 -6.71996,-6.47248 -11.05776,-12.21913 -14.60116,-19.3434 -8.18573,-16.45802 -8.18982,-32.47658 -0.0125,-48.9924 1.51295,-3.05571 4.20807,-7.48981 5.98915,-9.85355 6.00872,-7.97438 17.65564,-18.21103 26.85425,-23.60259 l 2.53997,-1.48875 3.22335,1.95989 c 20.59477,12.52225 33.96706,29.49003 38.24531,48.52857 1.10531,4.9187 1.10531,16.01702 0,20.93572 -3.86079,17.18084 -14.59549,32.00318 -32.18669,44.443 -7.369,5.21107 -6.03756,5.04643 -11.83989,1.46409 l 0,0 z"
       id="path3759"
       inkscape:connector-curvature="0" />
    <text
       xml:space="preserve"
       style="font-size:40px;font-style:normal;font-weight:bold;line-height:125%;letter-spacing:0px;word-spacing:0px;fill:#000000;fill-opacity:1;stroke:none;font-family:Sans;-inkscape-font-specification:Sans Bold"
       x="171.22086"
       y="55.053295"
       id="text3794"
       sodipodi:linespacing="125%"
       transform="translate(55.558397,194.23757)"><tspan
         sodipodi:role="line"
         id="tspan3796"
         x="171.22086"
         y="55.053295">XML</tspan></text>
    <text
       xml:space="preserve"
       style="font-size:40px;font-style:normal;font-weight:bold;line-height:125%;letter-spacing:0px;word-spacing:0px;fill:#000000;fill-opacity:1;stroke:none;font-family:Sans;-inkscape-font-specification:Sans Bold"
       x="157.07872"
       y="367.47873"
       id="text3798"
       sodipodi:linespacing="125%"><tspan
         sodipodi:role="line"
         id="tspan3800"
         x="157.07872"
         y="367.47873"
         style="font-size:36px">Bsp.</tspan><tspan
         sodipodi:role="line"
         x="157.07872"
         y="412.47873"
         id="tspan3802"
         style="font-size:36px">Gephi</tspan></text>
    <text
       xml:space="preserve"
       style="font-size:40px;font-style:normal;font-weight:bold;line-height:125%;letter-spacing:0px;word-spacing:0px;fill:#000000;fill-opacity:1;stroke:none;font-family:Sans;-inkscape-font-specification:Sans Bold"
       x="425.7793"
       y="378.08533"
       id="text3804"
       sodipodi:linespacing="125%"><tspan
         sodipodi:role="line"
         id="tspan3806"
         x="425.7793"
         y="378.08533">yEd</tspan></text>
    <text
       xml:space="preserve"
       style="font-size:40px;font-style:normal;font-weight:bold;line-height:125%;letter-spacing:0px;word-spacing:0px;fill:#000000;fill-opacity:1;stroke:none;font-family:Sans;-inkscape-font-specification:Sans Bold"
       x="-422.46634"
       y="359.29523"
       id="text3808"
       sodipodi:linespacing="125%"
       transform="matrix(0.0254627,-0.99967577,0.99967577,0.0254627,0,0)"
       inkscape:transform-center-x="3.0304576"
       inkscape:transform-center-y="2.5253814"><tspan
         sodipodi:role="line"
         id="tspan3810"
         x="-422.46634"
         y="359.29523"
         style="font-size:20px">GraphML</tspan></text>
  </g>
</svg>
